<svg width="1024" height="753" viewBox="0 0 1024 753" fill="none" xmlns="http://www.w3.org/2000/svg">
<g opacity="0.2" filter="url(#filter0_f_175_198)">
<ellipse cx="511.5" cy="23" rx="670.5" ry="350" fill="#B3A659"/>
</g>
<path d="M32.0349 259C33.5302 259 34.6622 259.63 35.4308 260.891C36.2134 262.138 36.6047 263.953 36.6047 266.336C36.6047 268.719 36.2134 270.541 35.4308 271.802C34.6622 273.063 33.5302 273.693 32.0349 273.693C30.5536 273.693 29.4216 273.063 28.639 271.802C27.8564 270.541 27.4651 268.719 27.4651 266.336C27.4651 263.967 27.8564 262.152 28.639 260.891C29.4216 259.63 30.5536 259 32.0349 259ZM28.9534 266.336C28.9534 268.026 29.1072 269.35 29.4146 270.306L34.0683 261.099C33.5791 260.448 32.9013 260.122 32.0349 260.122C31.0706 260.122 30.316 260.635 29.771 261.66C29.2259 262.672 28.9534 264.23 28.9534 266.336ZM32.0349 272.55C33.0131 272.55 33.7748 272.044 34.3198 271.033C34.8648 270.008 35.1373 268.442 35.1373 266.336C35.1373 264.549 34.9627 263.163 34.6133 262.18L29.9596 271.469C30.4627 272.19 31.1545 272.55 32.0349 272.55Z" fill="url(#paint0_linear_175_198)" fill-opacity="0.6"/>
<path d="M33.2926 296.135H36.3741V297.236H28.3874V296.135H31.9511V284.455L28.5551 286.471L27.9682 285.536L32.1607 282.959H33.2926V296.135Z" fill="url(#paint1_linear_175_198)" fill-opacity="0.6"/>
<path d="M32.0349 306.502C33.5302 306.502 34.6622 307.133 35.4308 308.393C36.2134 309.64 36.6047 311.455 36.6047 313.838C36.6047 316.221 36.2134 318.043 35.4308 319.304C34.6622 320.565 33.5302 321.195 32.0349 321.195C30.5536 321.195 29.4216 320.565 28.639 319.304C27.8564 318.043 27.4651 316.221 27.4651 313.838C27.4651 311.469 27.8564 309.654 28.639 308.393C29.4216 307.133 30.5536 306.502 32.0349 306.502ZM28.9534 313.838C28.9534 315.529 29.1072 316.852 29.4146 317.808L34.0683 308.601C33.5791 307.95 32.9013 307.624 32.0349 307.624C31.0706 307.624 30.316 308.137 29.771 309.162C29.2259 310.174 28.9534 311.732 28.9534 313.838ZM32.0349 320.052C33.0131 320.052 33.7748 319.546 34.3198 318.535C34.8648 317.51 35.1373 315.944 35.1373 313.838C35.1373 312.051 34.9627 310.665 34.6133 309.682L29.9596 318.971C30.4627 319.692 31.1545 320.052 32.0349 320.052Z" fill="url(#paint2_linear_175_198)" fill-opacity="0.6"/>
<path d="M33.2926 343.637H36.3741V344.738H28.3874V343.637H31.9511V331.957L28.5551 333.973L27.9682 333.038L32.1607 330.461H33.2926V343.637Z" fill="url(#paint3_linear_175_198)" fill-opacity="0.6"/>
<path d="M33.2926 367.388H36.3741V368.489H28.3874V367.388H31.9511V355.708L28.5551 357.724L27.9682 356.789L32.1607 354.212H33.2926V367.388Z" fill="url(#paint4_linear_175_198)" fill-opacity="0.6"/>
<path d="M32.0349 377.755C33.5302 377.755 34.6622 378.386 35.4308 379.646C36.2134 380.893 36.6047 382.708 36.6047 385.091C36.6047 387.474 36.2134 389.296 35.4308 390.557C34.6622 391.818 33.5302 392.448 32.0349 392.448C30.5536 392.448 29.4216 391.818 28.639 390.557C27.8564 389.296 27.4651 387.474 27.4651 385.091C27.4651 382.722 27.8564 380.907 28.639 379.646C29.4216 378.386 30.5536 377.755 32.0349 377.755ZM28.9534 385.091C28.9534 386.782 29.1072 388.105 29.4146 389.061L34.0683 379.854C33.5791 379.203 32.9013 378.878 32.0349 378.878C31.0706 378.878 30.316 379.39 29.771 380.415C29.2259 381.427 28.9534 382.985 28.9534 385.091ZM32.0349 391.305C33.0131 391.305 33.7748 390.8 34.3198 389.788C34.8648 388.763 35.1373 387.197 35.1373 385.091C35.1373 383.304 34.9627 381.919 34.6133 380.935L29.9596 390.225C30.4627 390.945 31.1545 391.305 32.0349 391.305Z" fill="url(#paint5_linear_175_198)" fill-opacity="0.6"/>
<path d="M33.2926 414.89H36.3741V415.992H28.3874V414.89H31.9511V403.21L28.5551 405.226L27.9682 404.291L32.1607 401.714H33.2926V414.89Z" fill="url(#paint6_linear_175_198)" fill-opacity="0.6"/>
<path d="M32.0349 425.257C33.5302 425.257 34.6622 425.888 35.4308 427.149C36.2134 428.396 36.6047 430.211 36.6047 432.594C36.6047 434.977 36.2134 436.798 35.4308 438.059C34.6622 439.32 33.5302 439.95 32.0349 439.95C30.5536 439.95 29.4216 439.32 28.639 438.059C27.8564 436.798 27.4651 434.977 27.4651 432.594C27.4651 430.224 27.8564 428.409 28.639 427.149C29.4216 425.888 30.5536 425.257 32.0349 425.257ZM28.9534 432.594C28.9534 434.284 29.1072 435.607 29.4146 436.563L34.0683 427.356C33.5791 426.705 32.9013 426.38 32.0349 426.38C31.0706 426.38 30.316 426.892 29.771 427.918C29.2259 428.929 28.9534 430.488 28.9534 432.594ZM32.0349 438.807C33.0131 438.807 33.7748 438.302 34.3198 437.29C34.8648 436.265 35.1373 434.699 35.1373 432.594C35.1373 430.806 34.9627 429.421 34.6133 428.437L29.9596 437.727C30.4627 438.447 31.1545 438.807 32.0349 438.807Z" fill="url(#paint7_linear_175_198)" fill-opacity="0.6"/>
<path d="M32.0349 449.008C33.5302 449.008 34.6622 449.639 35.4308 450.9C36.2134 452.147 36.6047 453.962 36.6047 456.345C36.6047 458.728 36.2134 460.549 35.4308 461.81C34.6622 463.071 33.5302 463.701 32.0349 463.701C30.5536 463.701 29.4216 463.071 28.639 461.81C27.8564 460.549 27.4651 458.728 27.4651 456.345C27.4651 453.975 27.8564 452.16 28.639 450.9C29.4216 449.639 30.5536 449.008 32.0349 449.008ZM28.9534 456.345C28.9534 458.035 29.1072 459.358 29.4146 460.314L34.0683 451.107C33.5791 450.456 32.9013 450.131 32.0349 450.131C31.0706 450.131 30.316 450.643 29.771 451.669C29.2259 452.68 28.9534 454.239 28.9534 456.345ZM32.0349 462.558C33.0131 462.558 33.7748 462.053 34.3198 461.041C34.8648 460.016 35.1373 458.451 35.1373 456.345C35.1373 454.557 34.9627 453.172 34.6133 452.188L29.9596 461.478C30.4627 462.198 31.1545 462.558 32.0349 462.558Z" fill="url(#paint8_linear_175_198)" fill-opacity="0.6"/>
<path d="M33.2926 486.143H36.3741V487.245H28.3874V486.143H31.9511V474.464L28.5551 476.48L27.9682 475.544L32.1607 472.967H33.2926V486.143Z" fill="url(#paint9_linear_175_198)" fill-opacity="0.6"/>
<path d="M32.0349 496.511C33.5302 496.511 34.6622 497.141 35.4308 498.402C36.2134 499.649 36.6047 501.464 36.6047 503.847C36.6047 506.23 36.2134 508.052 35.4308 509.312C34.6622 510.573 33.5302 511.204 32.0349 511.204C30.5536 511.204 29.4216 510.573 28.639 509.312C27.8564 508.052 27.4651 506.23 27.4651 503.847C27.4651 501.478 27.8564 499.663 28.639 498.402C29.4216 497.141 30.5536 496.511 32.0349 496.511ZM28.9534 503.847C28.9534 505.537 29.1072 506.86 29.4146 507.816L34.0683 498.61C33.5791 497.958 32.9013 497.633 32.0349 497.633C31.0706 497.633 30.316 498.145 29.771 499.171C29.2259 500.182 28.9534 501.741 28.9534 503.847ZM32.0349 510.061C33.0131 510.061 33.7748 509.555 34.3198 508.543C34.8648 507.518 35.1373 505.953 35.1373 503.847C35.1373 502.059 34.9627 500.674 34.6133 499.69L29.9596 508.98C30.4627 509.7 31.1545 510.061 32.0349 510.061Z" fill="url(#paint10_linear_175_198)" fill-opacity="0.6"/>
<path d="M33.2926 533.645H36.3741V534.747H28.3874V533.645H31.9511V521.966L28.5551 523.982L27.9682 523.046L32.1607 520.469H33.2926V533.645Z" fill="url(#paint11_linear_175_198)" fill-opacity="0.6"/>
<path d="M33.2926 557.396H36.3741V558.498H28.3874V557.396H31.9511V545.717L28.5551 547.733L27.9682 546.798L32.1607 544.221H33.2926V557.396Z" fill="url(#paint12_linear_175_198)" fill-opacity="0.6"/>
<path d="M70.9651 306.502C72.4604 306.502 73.5924 307.133 74.361 308.393C75.1436 309.64 75.5349 311.455 75.5349 313.838C75.5349 316.221 75.1436 318.043 74.361 319.304C73.5924 320.565 72.4604 321.195 70.9651 321.195C69.4838 321.195 68.3518 320.565 67.5692 319.304C66.7866 318.043 66.3953 316.221 66.3953 313.838C66.3953 311.469 66.7866 309.654 67.5692 308.393C68.3518 307.133 69.4838 306.502 70.9651 306.502ZM67.8836 313.838C67.8836 315.529 68.0374 316.852 68.3448 317.808L72.9985 308.601C72.5093 307.95 71.8315 307.624 70.9651 307.624C70.0008 307.624 69.2462 308.137 68.7012 309.162C68.1561 310.174 67.8836 311.732 67.8836 313.838ZM70.9651 320.052C71.9433 320.052 72.705 319.546 73.25 318.535C73.795 317.51 74.0675 315.944 74.0675 313.838C74.0675 312.051 73.8928 310.665 73.5435 309.682L68.8898 318.971C69.3929 319.692 70.0847 320.052 70.9651 320.052Z" fill="url(#paint13_linear_175_198)" fill-opacity="0.6"/>
<path d="M72.2228 343.637H75.3043V344.738H67.3176V343.637H70.8812V331.957L67.4853 333.973L66.8984 333.038L71.0909 330.461H72.2228V343.637Z" fill="url(#paint14_linear_175_198)" fill-opacity="0.6"/>
<path d="M70.9651 354.004C72.4604 354.004 73.5924 354.635 74.361 355.895C75.1436 357.142 75.5349 358.957 75.5349 361.34C75.5349 363.723 75.1436 365.545 74.361 366.806C73.5924 368.067 72.4604 368.697 70.9651 368.697C69.4838 368.697 68.3518 368.067 67.5692 366.806C66.7866 365.545 66.3953 363.723 66.3953 361.34C66.3953 358.971 66.7866 357.156 67.5692 355.895C68.3518 354.635 69.4838 354.004 70.9651 354.004ZM67.8836 361.34C67.8836 363.031 68.0374 364.354 68.3448 365.31L72.9985 356.103C72.5093 355.452 71.8315 355.126 70.9651 355.126C70.0008 355.126 69.2462 355.639 68.7012 356.664C68.1561 357.676 67.8836 359.234 67.8836 361.34ZM70.9651 367.554C71.9433 367.554 72.705 367.049 73.25 366.037C73.795 365.012 74.0675 363.446 74.0675 361.34C74.0675 359.553 73.8928 358.168 73.5435 357.184L68.8898 366.474C69.3929 367.194 70.0847 367.554 70.9651 367.554Z" fill="url(#paint15_linear_175_198)" fill-opacity="0.6"/>
<path d="M70.9651 377.755C72.4604 377.755 73.5924 378.386 74.361 379.646C75.1436 380.893 75.5349 382.708 75.5349 385.091C75.5349 387.474 75.1436 389.296 74.361 390.557C73.5924 391.818 72.4604 392.448 70.9651 392.448C69.4838 392.448 68.3518 391.818 67.5692 390.557C66.7866 389.296 66.3953 387.474 66.3953 385.091C66.3953 382.722 66.7866 380.907 67.5692 379.646C68.3518 378.386 69.4838 377.755 70.9651 377.755ZM67.8836 385.091C67.8836 386.782 68.0374 388.105 68.3448 389.061L72.9985 379.854C72.5093 379.203 71.8315 378.878 70.9651 378.878C70.0008 378.878 69.2462 379.39 68.7012 380.415C68.1561 381.427 67.8836 382.985 67.8836 385.091ZM70.9651 391.305C71.9433 391.305 72.705 390.8 73.25 389.788C73.795 388.763 74.0675 387.197 74.0675 385.091C74.0675 383.304 73.8928 381.919 73.5435 380.935L68.8898 390.225C69.3929 390.945 70.0847 391.305 70.9651 391.305Z" fill="url(#paint16_linear_175_198)" fill-opacity="0.6"/>
<path d="M72.2228 414.89H75.3043V415.992H67.3176V414.89H70.8812V403.21L67.4853 405.226L66.8984 404.291L71.0909 401.714H72.2228V414.89Z" fill="url(#paint17_linear_175_198)" fill-opacity="0.6"/>
<path d="M70.9651 425.257C72.4604 425.257 73.5924 425.888 74.361 427.149C75.1436 428.396 75.5349 430.211 75.5349 432.594C75.5349 434.977 75.1436 436.798 74.361 438.059C73.5924 439.32 72.4604 439.95 70.9651 439.95C69.4838 439.95 68.3518 439.32 67.5692 438.059C66.7866 436.798 66.3953 434.977 66.3953 432.594C66.3953 430.224 66.7866 428.409 67.5692 427.149C68.3518 425.888 69.4838 425.257 70.9651 425.257ZM67.8836 432.594C67.8836 434.284 68.0374 435.607 68.3448 436.563L72.9985 427.356C72.5093 426.705 71.8315 426.38 70.9651 426.38C70.0008 426.38 69.2462 426.892 68.7012 427.918C68.1561 428.929 67.8836 430.488 67.8836 432.594ZM70.9651 438.807C71.9433 438.807 72.705 438.302 73.25 437.29C73.795 436.265 74.0675 434.699 74.0675 432.594C74.0675 430.806 73.8928 429.421 73.5435 428.437L68.8898 437.727C69.3929 438.447 70.0847 438.807 70.9651 438.807Z" fill="url(#paint18_linear_175_198)" fill-opacity="0.6"/>
<path d="M72.2228 462.392H75.3043V463.494H67.3176V462.392H70.8812V450.713L67.4853 452.728L66.8984 451.793L71.0909 449.216H72.2228V462.392Z" fill="url(#paint19_linear_175_198)" fill-opacity="0.6"/>
<path d="M70.9651 472.76C72.4604 472.76 73.5924 473.39 74.361 474.651C75.1436 475.898 75.5349 477.713 75.5349 480.096C75.5349 482.479 75.1436 484.301 74.361 485.561C73.5924 486.822 72.4604 487.453 70.9651 487.453C69.4838 487.453 68.3518 486.822 67.5692 485.561C66.7866 484.301 66.3953 482.479 66.3953 480.096C66.3953 477.726 66.7866 475.911 67.5692 474.651C68.3518 473.39 69.4838 472.76 70.9651 472.76ZM67.8836 480.096C67.8836 481.786 68.0374 483.109 68.3448 484.065L72.9985 474.859C72.5093 474.207 71.8315 473.882 70.9651 473.882C70.0008 473.882 69.2462 474.394 68.7012 475.42C68.1561 476.431 67.8836 477.99 67.8836 480.096ZM70.9651 486.31C71.9433 486.31 72.705 485.804 73.25 484.792C73.795 483.767 74.0675 482.202 74.0675 480.096C74.0675 478.308 73.8928 476.923 73.5435 475.939L68.8898 485.229C69.3929 485.949 70.0847 486.31 70.9651 486.31Z" fill="url(#paint20_linear_175_198)" fill-opacity="0.6"/>
<path d="M70.9651 496.511C72.4604 496.511 73.5924 497.141 74.361 498.402C75.1436 499.649 75.5349 501.464 75.5349 503.847C75.5349 506.23 75.1436 508.052 74.361 509.312C73.5924 510.573 72.4604 511.204 70.9651 511.204C69.4838 511.204 68.3518 510.573 67.5692 509.312C66.7866 508.052 66.3953 506.23 66.3953 503.847C66.3953 501.478 66.7866 499.663 67.5692 498.402C68.3518 497.141 69.4838 496.511 70.9651 496.511ZM67.8836 503.847C67.8836 505.537 68.0374 506.86 68.3448 507.816L72.9985 498.61C72.5093 497.958 71.8315 497.633 70.9651 497.633C70.0008 497.633 69.2462 498.145 68.7012 499.171C68.1561 500.182 67.8836 501.741 67.8836 503.847ZM70.9651 510.061C71.9433 510.061 72.705 509.555 73.25 508.543C73.795 507.518 74.0675 505.953 74.0675 503.847C74.0675 502.059 73.8928 500.674 73.5435 499.69L68.8898 508.98C69.3929 509.7 70.0847 510.061 70.9651 510.061Z" fill="url(#paint21_linear_175_198)" fill-opacity="0.6"/>
<path d="M72.2228 533.645H75.3043V534.747H67.3176V533.645H70.8812V521.966L67.4853 523.982L66.8984 523.046L71.0909 520.469H72.2228V533.645Z" fill="url(#paint22_linear_175_198)" fill-opacity="0.6"/>
<path d="M70.9651 544.013C72.4604 544.013 73.5924 544.643 74.361 545.904C75.1436 547.151 75.5349 548.966 75.5349 551.349C75.5349 553.732 75.1436 555.554 74.361 556.815C73.5924 558.075 72.4604 558.706 70.9651 558.706C69.4838 558.706 68.3518 558.075 67.5692 556.815C66.7866 555.554 66.3953 553.732 66.3953 551.349C66.3953 548.98 66.7866 547.165 67.5692 545.904C68.3518 544.643 69.4838 544.013 70.9651 544.013ZM67.8836 551.349C67.8836 553.039 68.0374 554.362 68.3448 555.318L72.9985 546.112C72.5093 545.461 71.8315 545.135 70.9651 545.135C70.0008 545.135 69.2462 545.648 68.7012 546.673C68.1561 547.684 67.8836 549.243 67.8836 551.349ZM70.9651 557.563C71.9433 557.563 72.705 557.057 73.25 556.046C73.795 555.02 74.0675 553.455 74.0675 551.349C74.0675 549.562 73.8928 548.176 73.5435 547.192L68.8898 556.482C69.3929 557.202 70.0847 557.563 70.9651 557.563Z" fill="url(#paint23_linear_175_198)" fill-opacity="0.6"/>
<path d="M72.2228 581.148H75.3043V582.249H67.3176V581.148H70.8812V569.468L67.4853 571.484L66.8984 570.549L71.0909 567.972H72.2228V581.148Z" fill="url(#paint24_linear_175_198)" fill-opacity="0.6"/>
<path d="M72.2228 604.899H75.3043V606H67.3176V604.899H70.8812V593.219L67.4853 595.235L66.8984 594.3L71.0909 591.723H72.2228V604.899Z" fill="url(#paint25_linear_175_198)" fill-opacity="0.6"/>
<path d="M12.5698 330.253C14.0651 330.253 15.1971 330.884 15.9657 332.144C16.7483 333.391 17.1396 335.206 17.1396 337.589C17.1396 339.972 16.7483 341.794 15.9657 343.055C15.1971 344.316 14.0651 344.946 12.5698 344.946C11.0885 344.946 9.95649 344.316 9.1739 343.055C8.3913 341.794 8 339.972 8 337.589C8 335.22 8.3913 333.405 9.1739 332.144C9.95649 330.884 11.0885 330.253 12.5698 330.253ZM9.48833 337.589C9.48833 339.28 9.64206 340.603 9.9495 341.559L14.6032 332.352C14.114 331.701 13.4363 331.375 12.5698 331.375C11.6055 331.375 10.8509 331.888 10.3059 332.913C9.76084 333.925 9.48833 335.483 9.48833 337.589ZM12.5698 343.803C13.5481 343.803 14.3097 343.297 14.8547 342.286C15.3997 341.261 15.6722 339.695 15.6722 337.589C15.6722 335.802 15.4976 334.417 15.1482 333.433L10.4945 342.722C10.9976 343.443 11.6894 343.803 12.5698 343.803Z" fill="url(#paint26_linear_175_198)" fill-opacity="0.6"/>
<path d="M12.5698 354.004C14.0651 354.004 15.1971 354.635 15.9657 355.895C16.7483 357.142 17.1396 358.957 17.1396 361.34C17.1396 363.723 16.7483 365.545 15.9657 366.806C15.1971 368.067 14.0651 368.697 12.5698 368.697C11.0885 368.697 9.95649 368.067 9.1739 366.806C8.3913 365.545 8 363.723 8 361.34C8 358.971 8.3913 357.156 9.1739 355.895C9.95649 354.635 11.0885 354.004 12.5698 354.004ZM9.48833 361.34C9.48833 363.031 9.64206 364.354 9.9495 365.31L14.6032 356.103C14.114 355.452 13.4363 355.126 12.5698 355.126C11.6055 355.126 10.8509 355.639 10.3059 356.664C9.76084 357.676 9.48833 359.234 9.48833 361.34ZM12.5698 367.554C13.5481 367.554 14.3097 367.049 14.8547 366.037C15.3997 365.012 15.6722 363.446 15.6722 361.34C15.6722 359.553 15.4976 358.168 15.1482 357.184L10.4945 366.474C10.9976 367.194 11.6894 367.554 12.5698 367.554Z" fill="url(#paint27_linear_175_198)" fill-opacity="0.6"/>
<path d="M13.8276 391.139H16.909V392.24H8.92235V391.139H12.486V379.459L9.09005 381.475L8.5031 380.54L12.6956 377.963H13.8276V391.139Z" fill="url(#paint28_linear_175_198)" fill-opacity="0.6"/>
<path d="M12.5698 401.506C14.0651 401.506 15.1971 402.137 15.9657 403.398C16.7483 404.644 17.1396 406.459 17.1396 408.842C17.1396 411.225 16.7483 413.047 15.9657 414.308C15.1971 415.569 14.0651 416.199 12.5698 416.199C11.0885 416.199 9.95649 415.569 9.1739 414.308C8.3913 413.047 8 411.225 8 408.842C8 406.473 8.3913 404.658 9.1739 403.398C9.95649 402.137 11.0885 401.506 12.5698 401.506ZM9.48833 408.842C9.48833 410.533 9.64206 411.856 9.9495 412.812L14.6032 403.605C14.114 402.954 13.4363 402.629 12.5698 402.629C11.6055 402.629 10.8509 403.141 10.3059 404.166C9.76084 405.178 9.48833 406.737 9.48833 408.842ZM12.5698 415.056C13.5481 415.056 14.3097 414.551 14.8547 413.539C15.3997 412.514 15.6722 410.948 15.6722 408.842C15.6722 407.055 15.4976 405.67 15.1482 404.686L10.4945 413.976C10.9976 414.696 11.6894 415.056 12.5698 415.056Z" fill="url(#paint29_linear_175_198)" fill-opacity="0.6"/>
<path d="M13.8276 438.641H16.909V439.743H8.92235V438.641H12.486V426.962L9.09005 428.977L8.5031 428.042L12.6956 425.465H13.8276V438.641Z" fill="url(#paint30_linear_175_198)" fill-opacity="0.6"/>
<path d="M13.8276 462.392H16.909V463.494H8.92235V462.392H12.486V450.713L9.09005 452.728L8.5031 451.793L12.6956 449.216H13.8276V462.392Z" fill="url(#paint31_linear_175_198)" fill-opacity="0.6"/>
<path d="M52.7577 296.135H55.8392V297.236H47.8525V296.135H51.4162V284.455L48.0202 286.471L47.4333 285.536L51.6258 282.959H52.7577V296.135Z" fill="url(#paint32_linear_175_198)" fill-opacity="0.6"/>
<path d="M51.5 306.502C52.9953 306.502 54.1273 307.133 54.8959 308.393C55.6785 309.64 56.0698 311.455 56.0698 313.838C56.0698 316.221 55.6785 318.043 54.8959 319.304C54.1273 320.565 52.9953 321.195 51.5 321.195C50.0187 321.195 48.8867 320.565 48.1041 319.304C47.3215 318.043 46.9302 316.221 46.9302 313.838C46.9302 311.469 47.3215 309.654 48.1041 308.393C48.8867 307.133 50.0187 306.502 51.5 306.502ZM48.4185 313.838C48.4185 315.529 48.5723 316.852 48.8797 317.808L53.5334 308.601C53.0442 307.95 52.3664 307.624 51.5 307.624C50.5357 307.624 49.7811 308.137 49.2361 309.162C48.691 310.174 48.4185 311.732 48.4185 313.838ZM51.5 320.052C52.4782 320.052 53.2399 319.546 53.7849 318.535C54.3299 317.51 54.6024 315.944 54.6024 313.838C54.6024 312.051 54.4277 310.665 54.0784 309.682L49.4247 318.971C49.9278 319.692 50.6196 320.052 51.5 320.052Z" fill="url(#paint33_linear_175_198)" fill-opacity="0.6"/>
<path d="M52.7577 343.637H55.8392V344.738H47.8525V343.637H51.4162V331.957L48.0202 333.973L47.4333 333.038L51.6258 330.461H52.7577V343.637Z" fill="url(#paint34_linear_175_198)" fill-opacity="0.6"/>
<path d="M52.7577 367.388H55.8392V368.489H47.8525V367.388H51.4162V355.708L48.0202 357.724L47.4333 356.789L51.6258 354.212H52.7577V367.388Z" fill="url(#paint35_linear_175_198)" fill-opacity="0.6"/>
<path d="M51.5 377.755C52.9953 377.755 54.1273 378.386 54.8959 379.646C55.6785 380.893 56.0698 382.708 56.0698 385.091C56.0698 387.474 55.6785 389.296 54.8959 390.557C54.1273 391.818 52.9953 392.448 51.5 392.448C50.0187 392.448 48.8867 391.818 48.1041 390.557C47.3215 389.296 46.9302 387.474 46.9302 385.091C46.9302 382.722 47.3215 380.907 48.1041 379.646C48.8867 378.386 50.0187 377.755 51.5 377.755ZM48.4185 385.091C48.4185 386.782 48.5723 388.105 48.8797 389.061L53.5334 379.854C53.0442 379.203 52.3664 378.878 51.5 378.878C50.5357 378.878 49.7811 379.39 49.2361 380.415C48.691 381.427 48.4185 382.985 48.4185 385.091ZM51.5 391.305C52.4782 391.305 53.2399 390.8 53.7849 389.788C54.3299 388.763 54.6024 387.197 54.6024 385.091C54.6024 383.304 54.4277 381.919 54.0784 380.935L49.4247 390.225C49.9278 390.945 50.6196 391.305 51.5 391.305Z" fill="url(#paint36_linear_175_198)" fill-opacity="0.6"/>
<path d="M52.7577 414.89H55.8392V415.992H47.8525V414.89H51.4162V403.21L48.0202 405.226L47.4333 404.291L51.6258 401.714H52.7577V414.89Z" fill="url(#paint37_linear_175_198)" fill-opacity="0.6"/>
<path d="M52.7577 438.641H55.8392V439.743H47.8525V438.641H51.4162V426.962L48.0202 428.977L47.4333 428.042L51.6258 425.465H52.7577V438.641Z" fill="url(#paint38_linear_175_198)" fill-opacity="0.6"/>
<path d="M51.5 449.008C52.9953 449.008 54.1273 449.639 54.8959 450.9C55.6785 452.147 56.0698 453.962 56.0698 456.345C56.0698 458.728 55.6785 460.549 54.8959 461.81C54.1273 463.071 52.9953 463.701 51.5 463.701C50.0187 463.701 48.8867 463.071 48.1041 461.81C47.3215 460.549 46.9302 458.728 46.9302 456.345C46.9302 453.975 47.3215 452.16 48.1041 450.9C48.8867 449.639 50.0187 449.008 51.5 449.008ZM48.4185 456.345C48.4185 458.035 48.5723 459.358 48.8797 460.314L53.5334 451.107C53.0442 450.456 52.3664 450.131 51.5 450.131C50.5357 450.131 49.7811 450.643 49.2361 451.669C48.691 452.68 48.4185 454.239 48.4185 456.345ZM51.5 462.558C52.4782 462.558 53.2399 462.053 53.7849 461.041C54.3299 460.016 54.6024 458.451 54.6024 456.345C54.6024 454.557 54.4277 453.172 54.0784 452.188L49.4247 461.478C49.9278 462.198 50.6196 462.558 51.5 462.558Z" fill="url(#paint39_linear_175_198)" fill-opacity="0.6"/>
<path d="M52.7577 486.143H55.8392V487.245H47.8525V486.143H51.4162V474.464L48.0202 476.48L47.4333 475.544L51.6258 472.967H52.7577V486.143Z" fill="url(#paint40_linear_175_198)" fill-opacity="0.6"/>
<path d="M51.5 496.511C52.9953 496.511 54.1273 497.141 54.8959 498.402C55.6785 499.649 56.0698 501.464 56.0698 503.847C56.0698 506.23 55.6785 508.052 54.8959 509.312C54.1273 510.573 52.9953 511.204 51.5 511.204C50.0187 511.204 48.8867 510.573 48.1041 509.312C47.3215 508.052 46.9302 506.23 46.9302 503.847C46.9302 501.478 47.3215 499.663 48.1041 498.402C48.8867 497.141 50.0187 496.511 51.5 496.511ZM48.4185 503.847C48.4185 505.537 48.5723 506.86 48.8797 507.816L53.5334 498.61C53.0442 497.958 52.3664 497.633 51.5 497.633C50.5357 497.633 49.7811 498.145 49.2361 499.171C48.691 500.182 48.4185 501.741 48.4185 503.847ZM51.5 510.061C52.4782 510.061 53.2399 509.555 53.7849 508.543C54.3299 507.518 54.6024 505.953 54.6024 503.847C54.6024 502.059 54.4277 500.674 54.0784 499.69L49.4247 508.98C49.9278 509.7 50.6196 510.061 51.5 510.061Z" fill="url(#paint41_linear_175_198)" fill-opacity="0.6"/>
<path d="M90.4302 282.751C91.9255 282.751 93.0575 283.381 93.8261 284.642C94.6087 285.889 95 287.704 95 290.087C95 292.47 94.6087 294.292 93.8261 295.553C93.0575 296.814 91.9255 297.444 90.4302 297.444C88.9489 297.444 87.8169 296.814 87.0343 295.553C86.2517 294.292 85.8604 292.47 85.8604 290.087C85.8604 287.718 86.2517 285.903 87.0343 284.642C87.8169 283.381 88.9489 282.751 90.4302 282.751ZM87.3487 290.087C87.3487 291.777 87.5024 293.101 87.8099 294.057L92.4636 284.85C91.9744 284.199 91.2966 283.873 90.4302 283.873C89.4659 283.873 88.7113 284.386 88.1663 285.411C87.6212 286.423 87.3487 287.981 87.3487 290.087ZM90.4302 296.301C91.4084 296.301 92.1701 295.795 92.7151 294.784C93.2601 293.759 93.5326 292.193 93.5326 290.087C93.5326 288.3 93.3579 286.914 93.0086 285.931L88.3549 295.22C88.858 295.941 89.5498 296.301 90.4302 296.301Z" fill="url(#paint42_linear_175_198)" fill-opacity="0.6"/>
<path d="M91.6879 319.886H94.7694V320.987H86.7827V319.886H90.3463V308.206L86.9504 310.222L86.3635 309.287L90.556 306.71H91.6879V319.886Z" fill="url(#paint43_linear_175_198)" fill-opacity="0.6"/>
<path d="M91.6879 343.637H94.7694V344.738H86.7827V343.637H90.3463V331.957L86.9504 333.973L86.3635 333.038L90.556 330.461H91.6879V343.637Z" fill="url(#paint44_linear_175_198)" fill-opacity="0.6"/>
<path d="M90.4302 354.004C91.9255 354.004 93.0575 354.635 93.8261 355.895C94.6087 357.142 95 358.957 95 361.34C95 363.723 94.6087 365.545 93.8261 366.806C93.0575 368.067 91.9255 368.697 90.4302 368.697C88.9489 368.697 87.8169 368.067 87.0343 366.806C86.2517 365.545 85.8604 363.723 85.8604 361.34C85.8604 358.971 86.2517 357.156 87.0343 355.895C87.8169 354.635 88.9489 354.004 90.4302 354.004ZM87.3487 361.34C87.3487 363.031 87.5024 364.354 87.8099 365.31L92.4636 356.103C91.9744 355.452 91.2966 355.126 90.4302 355.126C89.4659 355.126 88.7113 355.639 88.1663 356.664C87.6212 357.676 87.3487 359.234 87.3487 361.34ZM90.4302 367.554C91.4084 367.554 92.1701 367.049 92.7151 366.037C93.2601 365.012 93.5326 363.446 93.5326 361.34C93.5326 359.553 93.3579 358.168 93.0086 357.184L88.3549 366.474C88.858 367.194 89.5498 367.554 90.4302 367.554Z" fill="url(#paint45_linear_175_198)" fill-opacity="0.6"/>
<path d="M90.4302 377.755C91.9255 377.755 93.0575 378.386 93.8261 379.646C94.6087 380.893 95 382.708 95 385.091C95 387.474 94.6087 389.296 93.8261 390.557C93.0575 391.818 91.9255 392.448 90.4302 392.448C88.9489 392.448 87.8169 391.818 87.0343 390.557C86.2517 389.296 85.8604 387.474 85.8604 385.091C85.8604 382.722 86.2517 380.907 87.0343 379.646C87.8169 378.386 88.9489 377.755 90.4302 377.755ZM87.3487 385.091C87.3487 386.782 87.5024 388.105 87.8099 389.061L92.4636 379.854C91.9744 379.203 91.2966 378.878 90.4302 378.878C89.4659 378.878 88.7113 379.39 88.1663 380.415C87.6212 381.427 87.3487 382.985 87.3487 385.091ZM90.4302 391.305C91.4084 391.305 92.1701 390.8 92.7151 389.788C93.2601 388.763 93.5326 387.197 93.5326 385.091C93.5326 383.304 93.3579 381.919 93.0086 380.935L88.3549 390.225C88.858 390.945 89.5498 391.305 90.4302 391.305Z" fill="url(#paint46_linear_175_198)" fill-opacity="0.6"/>
<g opacity="0.6">
<path d="M918.93 -41C920.356 -41 921.436 -40.395 922.17 -39.1851C922.916 -37.9885 923.29 -36.2468 923.29 -33.9599C923.29 -31.673 922.916 -29.9246 922.17 -28.7147C921.436 -27.5048 920.356 -26.8998 918.93 -26.8998C917.517 -26.8998 916.437 -27.5048 915.69 -28.7147C914.943 -29.9246 914.57 -31.673 914.57 -33.9599C914.57 -36.2335 914.943 -37.9752 915.69 -39.1851C916.437 -40.395 917.517 -41 918.93 -41ZM915.99 -33.9599C915.99 -32.3378 916.137 -31.068 916.43 -30.1506L920.87 -38.9857C920.403 -39.6106 919.756 -39.923 918.93 -39.923C918.01 -39.923 917.29 -39.4311 916.77 -38.4472C916.25 -37.4766 915.99 -35.9808 915.99 -33.9599ZM918.93 -27.9967C919.863 -27.9967 920.59 -28.482 921.11 -29.4526C921.63 -30.4365 921.89 -31.9389 921.89 -33.9599C921.89 -35.675 921.723 -37.0046 921.39 -37.9486L916.95 -29.0338C917.43 -28.3424 918.09 -27.9967 918.93 -27.9967Z" fill="url(#paint47_linear_175_198)"/>
<path d="M920.13 -5.36345H923.07V-4.30644H915.45V-5.36345H918.85V-16.5718L915.61 -14.6373L915.05 -15.5347L919.05 -18.0078H920.13V-5.36345Z" fill="url(#paint48_linear_175_198)"/>
<path d="M918.93 4.58561C920.356 4.58561 921.436 5.19057 922.17 6.40048C922.916 7.59711 923.29 9.33886 923.29 11.6257C923.29 13.9126 922.916 15.661 922.17 16.8709C921.436 18.0808 920.356 18.6858 918.93 18.6858C917.517 18.6858 916.437 18.0808 915.69 16.8709C914.943 15.661 914.57 13.9126 914.57 11.6257C914.57 9.35215 914.943 7.6104 915.69 6.40048C916.437 5.19057 917.517 4.58561 918.93 4.58561ZM915.99 11.6257C915.99 13.2478 916.137 14.5176 916.43 15.435L920.87 6.59992C920.403 5.97502 919.756 5.66256 918.93 5.66256C918.01 5.66256 917.29 6.15451 916.77 7.1384C916.25 8.10899 915.99 9.60477 915.99 11.6257ZM918.93 17.5889C919.863 17.5889 920.59 17.1036 921.11 16.133C921.63 15.1491 921.89 13.6467 921.89 11.6257C921.89 9.91057 921.723 8.58099 921.39 7.63699L916.95 16.5518C917.43 17.2432 918.09 17.5889 918.93 17.5889Z" fill="url(#paint49_linear_175_198)"/>
<path d="M920.13 40.2221H923.07V41.2792H915.45V40.2221H918.85V29.0138L915.61 30.9483L915.05 30.0509L919.05 27.5778H920.13V40.2221Z" fill="url(#paint50_linear_175_198)"/>
<path d="M920.13 63.015H923.07V64.072H915.45V63.015H918.85V51.8066L915.61 53.7411L915.05 52.8437L919.05 50.3706H920.13V63.015Z" fill="url(#paint51_linear_175_198)"/>
<path d="M918.93 72.964C920.356 72.964 921.436 73.569 922.17 74.7789C922.916 75.9755 923.29 77.7173 923.29 80.0041C923.29 82.291 922.916 84.0394 922.17 85.2493C921.436 86.4593 920.356 87.0642 918.93 87.0642C917.517 87.0642 916.437 86.4593 915.69 85.2493C914.943 84.0394 914.57 82.291 914.57 80.0041C914.57 77.7306 914.943 75.9888 915.69 74.7789C916.437 73.569 917.517 72.964 918.93 72.964ZM915.99 80.0041C915.99 81.6262 916.137 82.896 916.43 83.8134L920.87 74.9783C920.403 74.3534 919.756 74.041 918.93 74.041C918.01 74.041 917.29 74.5329 916.77 75.5168C916.25 76.4874 915.99 77.9832 915.99 80.0041ZM918.93 85.9673C919.863 85.9673 920.59 85.482 921.11 84.5114C921.63 83.5275 921.89 82.0251 921.89 80.0041C921.89 78.289 921.723 76.9594 921.39 76.0154L916.95 84.9302C917.43 85.6216 918.09 85.9673 918.93 85.9673Z" fill="url(#paint52_linear_175_198)"/>
<path d="M920.13 108.601H923.07V109.658H915.45V108.601H918.85V97.3922L915.61 99.3267L915.05 98.4293L919.05 95.9562H920.13V108.601Z" fill="url(#paint53_linear_175_198)"/>
<path d="M918.93 118.55C920.356 118.55 921.436 119.155 922.17 120.365C922.916 121.561 923.29 123.303 923.29 125.59C923.29 127.877 922.916 129.625 922.17 130.835C921.436 132.045 920.356 132.65 918.93 132.65C917.517 132.65 916.437 132.045 915.69 130.835C914.943 129.625 914.57 127.877 914.57 125.59C914.57 123.316 914.943 121.574 915.69 120.365C916.437 119.155 917.517 118.55 918.93 118.55ZM915.99 125.59C915.99 127.212 916.137 128.482 916.43 129.399L920.87 120.564C920.403 119.939 919.756 119.627 918.93 119.627C918.01 119.627 917.29 120.119 916.77 121.102C916.25 122.073 915.99 123.569 915.99 125.59ZM918.93 131.553C919.863 131.553 920.59 131.068 921.11 130.097C921.63 129.113 921.89 127.611 921.89 125.59C921.89 123.875 921.723 122.545 921.39 121.601L916.95 130.516C917.43 131.207 918.09 131.553 918.93 131.553Z" fill="url(#paint54_linear_175_198)"/>
<path d="M918.93 141.342C920.356 141.342 921.436 141.947 922.17 143.157C922.916 144.354 923.29 146.096 923.29 148.383C923.29 150.669 922.916 152.418 922.17 153.628C921.436 154.838 920.356 155.443 918.93 155.443C917.517 155.443 916.437 154.838 915.69 153.628C914.943 152.418 914.57 150.669 914.57 148.383C914.57 146.109 914.943 144.367 915.69 143.157C916.437 141.947 917.517 141.342 918.93 141.342ZM915.99 148.383C915.99 150.005 916.137 151.274 916.43 152.192L920.87 143.357C920.403 142.732 919.756 142.419 918.93 142.419C918.01 142.419 917.29 142.911 916.77 143.895C916.25 144.866 915.99 146.362 915.99 148.383ZM918.93 154.346C919.863 154.346 920.59 153.86 921.11 152.89C921.63 151.906 921.89 150.404 921.89 148.383C921.89 146.667 921.723 145.338 921.39 144.394L916.95 153.309C917.43 154 918.09 154.346 918.93 154.346Z" fill="url(#paint55_linear_175_198)"/>
<path d="M920.13 176.979H923.07V178.036H915.45V176.979H918.85V165.771L915.61 167.705L915.05 166.808L919.05 164.335H920.13V176.979Z" fill="url(#paint56_linear_175_198)"/>
<path d="M918.93 186.928C920.356 186.928 921.436 187.533 922.17 188.743C922.916 189.94 923.29 191.681 923.29 193.968C923.29 196.255 922.916 198.003 922.17 199.213C921.436 200.423 920.356 201.028 918.93 201.028C917.517 201.028 916.437 200.423 915.69 199.213C914.943 198.003 914.57 196.255 914.57 193.968C914.57 191.695 914.943 189.953 915.69 188.743C916.437 187.533 917.517 186.928 918.93 186.928ZM915.99 193.968C915.99 195.59 916.137 196.86 916.43 197.777L920.87 188.942C920.403 188.317 919.756 188.005 918.93 188.005C918.01 188.005 917.29 188.497 916.77 189.481C916.25 190.451 915.99 191.947 915.99 193.968ZM918.93 199.931C919.863 199.931 920.59 199.446 921.11 198.475C921.63 197.492 921.89 195.989 921.89 193.968C921.89 192.253 921.723 190.923 921.39 189.979L916.95 198.894C917.43 199.586 918.09 199.931 918.93 199.931Z" fill="url(#paint57_linear_175_198)"/>
<path d="M920.13 222.565H923.07V223.622H915.45V222.565H918.85V211.356L915.61 213.291L915.05 212.393L919.05 209.92H920.13V222.565Z" fill="url(#paint58_linear_175_198)"/>
<path d="M920.13 245.357H923.07V246.414H915.45V245.357H918.85V234.149L915.61 236.084L915.05 235.186L919.05 232.713H920.13V245.357Z" fill="url(#paint59_linear_175_198)"/>
<path d="M956.07 4.58561C957.497 4.58561 958.577 5.19057 959.31 6.40048C960.057 7.59711 960.43 9.33886 960.43 11.6257C960.43 13.9126 960.057 15.661 959.31 16.8709C958.577 18.0808 957.497 18.6858 956.07 18.6858C954.657 18.6858 953.577 18.0808 952.83 16.8709C952.084 15.661 951.71 13.9126 951.71 11.6257C951.71 9.35215 952.084 7.6104 952.83 6.40048C953.577 5.19057 954.657 4.58561 956.07 4.58561ZM953.13 11.6257C953.13 13.2478 953.277 14.5176 953.57 15.435L958.01 6.59992C957.543 5.97502 956.897 5.66256 956.07 5.66256C955.15 5.66256 954.43 6.15451 953.91 7.1384C953.39 8.10899 953.13 9.60477 953.13 11.6257ZM956.07 17.5889C957.003 17.5889 957.73 17.1036 958.25 16.133C958.77 15.1491 959.03 13.6467 959.03 11.6257C959.03 9.91057 958.863 8.58099 958.53 7.63699L954.09 16.5518C954.57 17.2432 955.23 17.5889 956.07 17.5889Z" fill="url(#paint60_linear_175_198)"/>
<path d="M957.27 40.2221H960.21V41.2792H952.59V40.2221H955.99V29.0138L952.75 30.9483L952.19 30.0509L956.19 27.5778H957.27V40.2221Z" fill="url(#paint61_linear_175_198)"/>
<path d="M956.07 50.1712C957.497 50.1712 958.577 50.7762 959.31 51.9861C960.057 53.1827 960.43 54.9245 960.43 57.2113C960.43 59.4982 960.057 61.2466 959.31 62.4565C958.577 63.6664 957.497 64.2714 956.07 64.2714C954.657 64.2714 953.577 63.6664 952.83 62.4565C952.084 61.2466 951.71 59.4982 951.71 57.2113C951.71 54.9378 952.084 53.196 952.83 51.9861C953.577 50.7762 954.657 50.1712 956.07 50.1712ZM953.13 57.2113C953.13 58.8334 953.277 60.1032 953.57 61.0206L958.01 52.1855C957.543 51.5606 956.897 51.2482 956.07 51.2482C955.15 51.2482 954.43 51.7401 953.91 52.724C953.39 53.6946 953.13 55.1904 953.13 57.2113ZM956.07 63.1745C957.003 63.1745 957.73 62.6892 958.25 61.7186C958.77 60.7347 959.03 59.2323 959.03 57.2113C959.03 55.4962 958.863 54.1666 958.53 53.2226L954.09 62.1374C954.57 62.8288 955.23 63.1745 956.07 63.1745Z" fill="url(#paint62_linear_175_198)"/>
<path d="M956.07 72.964C957.497 72.964 958.577 73.569 959.31 74.7789C960.057 75.9755 960.43 77.7173 960.43 80.0041C960.43 82.291 960.057 84.0394 959.31 85.2493C958.577 86.4593 957.497 87.0642 956.07 87.0642C954.657 87.0642 953.577 86.4593 952.83 85.2493C952.084 84.0394 951.71 82.291 951.71 80.0041C951.71 77.7306 952.084 75.9888 952.83 74.7789C953.577 73.569 954.657 72.964 956.07 72.964ZM953.13 80.0041C953.13 81.6262 953.277 82.896 953.57 83.8134L958.01 74.9783C957.543 74.3534 956.897 74.041 956.07 74.041C955.15 74.041 954.43 74.5329 953.91 75.5168C953.39 76.4874 953.13 77.9832 953.13 80.0041ZM956.07 85.9673C957.003 85.9673 957.73 85.482 958.25 84.5114C958.77 83.5275 959.03 82.0251 959.03 80.0041C959.03 78.289 958.863 76.9594 958.53 76.0154L954.09 84.9302C954.57 85.6216 955.23 85.9673 956.07 85.9673Z" fill="url(#paint63_linear_175_198)"/>
<path d="M957.27 108.601H960.21V109.658H952.59V108.601H955.99V97.3922L952.75 99.3267L952.19 98.4293L956.19 95.9562H957.27V108.601Z" fill="url(#paint64_linear_175_198)"/>
<path d="M956.07 118.55C957.497 118.55 958.577 119.155 959.31 120.365C960.057 121.561 960.43 123.303 960.43 125.59C960.43 127.877 960.057 129.625 959.31 130.835C958.577 132.045 957.497 132.65 956.07 132.65C954.657 132.65 953.577 132.045 952.83 130.835C952.084 129.625 951.71 127.877 951.71 125.59C951.71 123.316 952.084 121.574 952.83 120.365C953.577 119.155 954.657 118.55 956.07 118.55ZM953.13 125.59C953.13 127.212 953.277 128.482 953.57 129.399L958.01 120.564C957.543 119.939 956.897 119.627 956.07 119.627C955.15 119.627 954.43 120.119 953.91 121.102C953.39 122.073 953.13 123.569 953.13 125.59ZM956.07 131.553C957.003 131.553 957.73 131.068 958.25 130.097C958.77 129.113 959.03 127.611 959.03 125.59C959.03 123.875 958.863 122.545 958.53 121.601L954.09 130.516C954.57 131.207 955.23 131.553 956.07 131.553Z" fill="url(#paint65_linear_175_198)"/>
<path d="M957.27 154.186H960.21V155.243H952.59V154.186H955.99V142.978L952.75 144.912L952.19 144.015L956.19 141.542H957.27V154.186Z" fill="url(#paint66_linear_175_198)"/>
<path d="M956.07 164.135C957.497 164.135 958.577 164.74 959.31 165.95C960.057 167.147 960.43 168.888 960.43 171.175C960.43 173.462 960.057 175.211 959.31 176.421C958.577 177.63 957.497 178.235 956.07 178.235C954.657 178.235 953.577 177.63 952.83 176.421C952.084 175.211 951.71 173.462 951.71 171.175C951.71 168.902 952.084 167.16 952.83 165.95C953.577 164.74 954.657 164.135 956.07 164.135ZM953.13 171.175C953.13 172.797 953.277 174.067 953.57 174.985L958.01 166.15C957.543 165.525 956.897 165.212 956.07 165.212C955.15 165.212 954.43 165.704 953.91 166.688C953.39 167.659 953.13 169.154 953.13 171.175ZM956.07 177.139C957.003 177.139 957.73 176.653 958.25 175.683C958.77 174.699 959.03 173.196 959.03 171.175C959.03 169.46 958.863 168.131 958.53 167.187L954.09 176.101C954.57 176.793 955.23 177.139 956.07 177.139Z" fill="url(#paint67_linear_175_198)"/>
<path d="M956.07 186.928C957.497 186.928 958.577 187.533 959.31 188.743C960.057 189.94 960.43 191.681 960.43 193.968C960.43 196.255 960.057 198.003 959.31 199.213C958.577 200.423 957.497 201.028 956.07 201.028C954.657 201.028 953.577 200.423 952.83 199.213C952.084 198.003 951.71 196.255 951.71 193.968C951.71 191.695 952.084 189.953 952.83 188.743C953.577 187.533 954.657 186.928 956.07 186.928ZM953.13 193.968C953.13 195.59 953.277 196.86 953.57 197.777L958.01 188.942C957.543 188.317 956.897 188.005 956.07 188.005C955.15 188.005 954.43 188.497 953.91 189.481C953.39 190.451 953.13 191.947 953.13 193.968ZM956.07 199.931C957.003 199.931 957.73 199.446 958.25 198.475C958.77 197.492 959.03 195.989 959.03 193.968C959.03 192.253 958.863 190.923 958.53 189.979L954.09 198.894C954.57 199.586 955.23 199.931 956.07 199.931Z" fill="url(#paint68_linear_175_198)"/>
<path d="M957.27 222.565H960.21V223.622H952.59V222.565H955.99V211.356L952.75 213.291L952.19 212.393L956.19 209.92H957.27V222.565Z" fill="url(#paint69_linear_175_198)"/>
<path d="M956.07 232.514C957.497 232.514 958.577 233.119 959.31 234.329C960.057 235.525 960.43 237.267 960.43 239.554C960.43 241.841 960.057 243.589 959.31 244.799C958.577 246.009 957.497 246.614 956.07 246.614C954.657 246.614 953.577 246.009 952.83 244.799C952.084 243.589 951.71 241.841 951.71 239.554C951.71 237.28 952.084 235.538 952.83 234.329C953.577 233.119 954.657 232.514 956.07 232.514ZM953.13 239.554C953.13 241.176 953.277 242.446 953.57 243.363L958.01 234.528C957.543 233.903 956.897 233.591 956.07 233.591C955.15 233.591 954.43 234.083 953.91 235.066C953.39 236.037 953.13 237.533 953.13 239.554ZM956.07 245.517C957.003 245.517 957.73 245.032 958.25 244.061C958.77 243.077 959.03 241.575 959.03 239.554C959.03 237.839 958.863 236.509 958.53 235.565L954.09 244.48C954.57 245.171 955.23 245.517 956.07 245.517Z" fill="url(#paint70_linear_175_198)"/>
<path d="M957.27 268.15H960.21V269.207H952.59V268.15H955.99V256.942L952.75 258.876L952.19 257.979L956.19 255.506H957.27V268.15Z" fill="url(#paint71_linear_175_198)"/>
<path d="M957.27 290.943H960.21V292H952.59V290.943H955.99V279.735L952.75 281.669L952.19 280.772L956.19 278.299H957.27V290.943Z" fill="url(#paint72_linear_175_198)"/>
<path d="M900.36 27.3784C901.786 27.3784 902.866 27.9834 903.599 29.1933C904.346 30.3899 904.719 32.1317 904.719 34.4185C904.719 36.7054 904.346 38.4538 903.599 39.6637C902.866 40.8736 901.786 41.4786 900.36 41.4786C898.946 41.4786 897.867 40.8736 897.12 39.6637C896.373 38.4538 896 36.7054 896 34.4185C896 32.145 896.373 30.4032 897.12 29.1933C897.867 27.9834 898.946 27.3784 900.36 27.3784ZM897.42 34.4185C897.42 36.0406 897.567 37.3104 897.86 38.2278L902.3 29.3927C901.833 28.7678 901.186 28.4554 900.36 28.4554C899.44 28.4554 898.72 28.9473 898.2 29.9312C897.68 30.9018 897.42 32.3976 897.42 34.4185ZM900.36 40.3817C901.293 40.3817 902.02 39.8964 902.54 38.9258C903.06 37.9419 903.319 36.4395 903.319 34.4185C903.319 32.7034 903.153 31.3738 902.82 30.4298L898.38 39.3446C898.86 40.036 899.52 40.3817 900.36 40.3817Z" fill="url(#paint73_linear_175_198)"/>
<path d="M900.36 50.1712C901.786 50.1712 902.866 50.7762 903.599 51.9861C904.346 53.1827 904.719 54.9245 904.719 57.2113C904.719 59.4982 904.346 61.2466 903.599 62.4565C902.866 63.6664 901.786 64.2714 900.36 64.2714C898.946 64.2714 897.867 63.6664 897.12 62.4565C896.373 61.2466 896 59.4982 896 57.2113C896 54.9378 896.373 53.196 897.12 51.9861C897.867 50.7762 898.946 50.1712 900.36 50.1712ZM897.42 57.2113C897.42 58.8334 897.567 60.1032 897.86 61.0206L902.3 52.1855C901.833 51.5606 901.186 51.2482 900.36 51.2482C899.44 51.2482 898.72 51.7401 898.2 52.724C897.68 53.6946 897.42 55.1904 897.42 57.2113ZM900.36 63.1745C901.293 63.1745 902.02 62.6892 902.54 61.7186C903.06 60.7347 903.319 59.2323 903.319 57.2113C903.319 55.4962 903.153 54.1666 902.82 53.2226L898.38 62.1374C898.86 62.8288 899.52 63.1745 900.36 63.1745Z" fill="url(#paint74_linear_175_198)"/>
<path d="M901.56 85.8078H904.499V86.8648H896.88V85.8078H900.28V74.5994L897.04 76.5339L896.48 75.6365L900.48 73.1635H901.56V85.8078Z" fill="url(#paint75_linear_175_198)"/>
<path d="M900.36 95.7568C901.786 95.7568 902.866 96.3618 903.599 97.5717C904.346 98.7683 904.719 100.51 904.719 102.797C904.719 105.084 904.346 106.832 903.599 108.042C902.866 109.252 901.786 109.857 900.36 109.857C898.946 109.857 897.867 109.252 897.12 108.042C896.373 106.832 896 105.084 896 102.797C896 100.523 896.373 98.7816 897.12 97.5717C897.867 96.3618 898.946 95.7568 900.36 95.7568ZM897.42 102.797C897.42 104.419 897.567 105.689 897.86 106.606L902.3 97.7711C901.833 97.1462 901.186 96.8338 900.36 96.8338C899.44 96.8338 898.72 97.3257 898.2 98.3096C897.68 99.2802 897.42 100.776 897.42 102.797ZM900.36 108.76C901.293 108.76 902.02 108.275 902.54 107.304C903.06 106.32 903.319 104.818 903.319 102.797C903.319 101.082 903.153 99.7522 902.82 98.8082L898.38 107.723C898.86 108.414 899.52 108.76 900.36 108.76Z" fill="url(#paint76_linear_175_198)"/>
<path d="M901.56 131.393H904.499V132.45H896.88V131.393H900.28V120.185L897.04 122.12L896.48 121.222L900.48 118.749H901.56V131.393Z" fill="url(#paint77_linear_175_198)"/>
<path d="M901.56 154.186H904.499V155.243H896.88V154.186H900.28V142.978L897.04 144.912L896.48 144.015L900.48 141.542H901.56V154.186Z" fill="url(#paint78_linear_175_198)"/>
<path d="M938.7 -5.36345H941.64V-4.30644H934.02V-5.36345H937.42V-16.5718L934.18 -14.6373L933.62 -15.5347L937.62 -18.0078H938.7V-5.36345Z" fill="url(#paint79_linear_175_198)"/>
<path d="M937.5 4.58561C938.927 4.58561 940.006 5.19057 940.74 6.40048C941.486 7.59711 941.86 9.33886 941.86 11.6257C941.86 13.9126 941.486 15.661 940.74 16.8709C940.006 18.0808 938.927 18.6858 937.5 18.6858C936.087 18.6858 935.007 18.0808 934.26 16.8709C933.514 15.661 933.14 13.9126 933.14 11.6257C933.14 9.35215 933.514 7.6104 934.26 6.40048C935.007 5.19057 936.087 4.58561 937.5 4.58561ZM934.56 11.6257C934.56 13.2478 934.707 14.5176 935 15.435L939.44 6.59992C938.973 5.97502 938.327 5.66256 937.5 5.66256C936.58 5.66256 935.86 6.15451 935.34 7.1384C934.82 8.10899 934.56 9.60477 934.56 11.6257ZM937.5 17.5889C938.433 17.5889 939.16 17.1036 939.68 16.133C940.2 15.1491 940.46 13.6467 940.46 11.6257C940.46 9.91057 940.293 8.58099 939.96 7.63699L935.52 16.5518C936 17.2432 936.66 17.5889 937.5 17.5889Z" fill="url(#paint80_linear_175_198)"/>
<path d="M938.7 40.2221H941.64V41.2792H934.02V40.2221H937.42V29.0138L934.18 30.9483L933.62 30.0509L937.62 27.5778H938.7V40.2221Z" fill="url(#paint81_linear_175_198)"/>
<path d="M938.7 63.015H941.64V64.072H934.02V63.015H937.42V51.8066L934.18 53.7411L933.62 52.8437L937.62 50.3706H938.7V63.015Z" fill="url(#paint82_linear_175_198)"/>
<path d="M937.5 72.964C938.927 72.964 940.006 73.569 940.74 74.7789C941.486 75.9755 941.86 77.7173 941.86 80.0041C941.86 82.291 941.486 84.0394 940.74 85.2493C940.006 86.4593 938.927 87.0642 937.5 87.0642C936.087 87.0642 935.007 86.4593 934.26 85.2493C933.514 84.0394 933.14 82.291 933.14 80.0041C933.14 77.7306 933.514 75.9888 934.26 74.7789C935.007 73.569 936.087 72.964 937.5 72.964ZM934.56 80.0041C934.56 81.6262 934.707 82.896 935 83.8134L939.44 74.9783C938.973 74.3534 938.327 74.041 937.5 74.041C936.58 74.041 935.86 74.5329 935.34 75.5168C934.82 76.4874 934.56 77.9832 934.56 80.0041ZM937.5 85.9673C938.433 85.9673 939.16 85.482 939.68 84.5114C940.2 83.5275 940.46 82.0251 940.46 80.0041C940.46 78.289 940.293 76.9594 939.96 76.0154L935.52 84.9302C936 85.6216 936.66 85.9673 937.5 85.9673Z" fill="url(#paint83_linear_175_198)"/>
<path d="M938.7 108.601H941.64V109.658H934.02V108.601H937.42V97.3922L934.18 99.3267L933.62 98.4293L937.62 95.9562H938.7V108.601Z" fill="url(#paint84_linear_175_198)"/>
<path d="M938.7 131.393H941.64V132.45H934.02V131.393H937.42V120.185L934.18 122.12L933.62 121.222L937.62 118.749H938.7V131.393Z" fill="url(#paint85_linear_175_198)"/>
<path d="M937.5 141.342C938.927 141.342 940.006 141.947 940.74 143.157C941.486 144.354 941.86 146.096 941.86 148.383C941.86 150.669 941.486 152.418 940.74 153.628C940.006 154.838 938.927 155.443 937.5 155.443C936.087 155.443 935.007 154.838 934.26 153.628C933.514 152.418 933.14 150.669 933.14 148.383C933.14 146.109 933.514 144.367 934.26 143.157C935.007 141.947 936.087 141.342 937.5 141.342ZM934.56 148.383C934.56 150.005 934.707 151.274 935 152.192L939.44 143.357C938.973 142.732 938.327 142.419 937.5 142.419C936.58 142.419 935.86 142.911 935.34 143.895C934.82 144.866 934.56 146.362 934.56 148.383ZM937.5 154.346C938.433 154.346 939.16 153.86 939.68 152.89C940.2 151.906 940.46 150.404 940.46 148.383C940.46 146.667 940.293 145.338 939.96 144.394L935.52 153.309C936 154 936.66 154.346 937.5 154.346Z" fill="url(#paint86_linear_175_198)"/>
<path d="M938.7 176.979H941.64V178.036H934.02V176.979H937.42V165.771L934.18 167.705L933.62 166.808L937.62 164.335H938.7V176.979Z" fill="url(#paint87_linear_175_198)"/>
<path d="M937.5 186.928C938.927 186.928 940.006 187.533 940.74 188.743C941.486 189.94 941.86 191.681 941.86 193.968C941.86 196.255 941.486 198.003 940.74 199.213C940.006 200.423 938.927 201.028 937.5 201.028C936.087 201.028 935.007 200.423 934.26 199.213C933.514 198.003 933.14 196.255 933.14 193.968C933.14 191.695 933.514 189.953 934.26 188.743C935.007 187.533 936.087 186.928 937.5 186.928ZM934.56 193.968C934.56 195.59 934.707 196.86 935 197.777L939.44 188.942C938.973 188.317 938.327 188.005 937.5 188.005C936.58 188.005 935.86 188.497 935.34 189.481C934.82 190.451 934.56 191.947 934.56 193.968ZM937.5 199.931C938.433 199.931 939.16 199.446 939.68 198.475C940.2 197.492 940.46 195.989 940.46 193.968C940.46 192.253 940.293 190.923 939.96 189.979L935.52 198.894C936 199.586 936.66 199.931 937.5 199.931Z" fill="url(#paint88_linear_175_198)"/>
<path d="M974.64 -18.2072C976.067 -18.2072 977.147 -17.6022 977.88 -16.3923C978.627 -15.1957 979 -13.4539 979 -11.1671C979 -8.88019 978.627 -7.13179 977.88 -5.92188C977.147 -4.71196 976.067 -4.107 974.64 -4.107C973.227 -4.107 972.147 -4.71196 971.401 -5.92188C970.654 -7.13179 970.281 -8.88019 970.281 -11.1671C970.281 -13.4407 970.654 -15.1824 971.401 -16.3923C972.147 -17.6022 973.227 -18.2072 974.64 -18.2072ZM971.7 -11.1671C971.7 -9.54498 971.847 -8.27523 972.14 -7.35782L976.58 -16.1929C976.114 -16.8178 975.467 -17.1302 974.64 -17.1302C973.72 -17.1302 973 -16.6383 972.48 -15.6544C971.96 -14.6838 971.7 -13.188 971.7 -11.1671ZM974.64 -5.2039C975.574 -5.2039 976.3 -5.6892 976.82 -6.65979C977.34 -7.64368 977.6 -9.14611 977.6 -11.1671C977.6 -12.8822 977.433 -14.2118 977.1 -15.1558L972.66 -6.24098C973.14 -5.5496 973.8 -5.2039 974.64 -5.2039Z" fill="url(#paint89_linear_175_198)"/>
<path d="M975.84 17.4293H978.78V18.4864H971.161V17.4293H974.56V6.22099L971.321 8.15553L970.761 7.25806L974.76 4.78504H975.84V17.4293Z" fill="url(#paint90_linear_175_198)"/>
<path d="M975.84 40.2221H978.78V41.2792H971.161V40.2221H974.56V29.0138L971.321 30.9483L970.761 30.0509L974.76 27.5778H975.84V40.2221Z" fill="url(#paint91_linear_175_198)"/>
<path d="M974.64 50.1712C976.067 50.1712 977.147 50.7762 977.88 51.9861C978.627 53.1827 979 54.9245 979 57.2113C979 59.4982 978.627 61.2466 977.88 62.4565C977.147 63.6664 976.067 64.2714 974.64 64.2714C973.227 64.2714 972.147 63.6664 971.401 62.4565C970.654 61.2466 970.281 59.4982 970.281 57.2113C970.281 54.9378 970.654 53.196 971.401 51.9861C972.147 50.7762 973.227 50.1712 974.64 50.1712ZM971.7 57.2113C971.7 58.8334 971.847 60.1032 972.14 61.0206L976.58 52.1855C976.114 51.5606 975.467 51.2482 974.64 51.2482C973.72 51.2482 973 51.7401 972.48 52.724C971.96 53.6946 971.7 55.1904 971.7 57.2113ZM974.64 63.1745C975.574 63.1745 976.3 62.6892 976.82 61.7186C977.34 60.7347 977.6 59.2323 977.6 57.2113C977.6 55.4962 977.433 54.1666 977.1 53.2226L972.66 62.1374C973.14 62.8288 973.8 63.1745 974.64 63.1745Z" fill="url(#paint92_linear_175_198)"/>
<path d="M974.64 72.964C976.067 72.964 977.147 73.569 977.88 74.7789C978.627 75.9755 979 77.7173 979 80.0041C979 82.291 978.627 84.0394 977.88 85.2493C977.147 86.4593 976.067 87.0642 974.64 87.0642C973.227 87.0642 972.147 86.4593 971.401 85.2493C970.654 84.0394 970.281 82.291 970.281 80.0041C970.281 77.7306 970.654 75.9888 971.401 74.7789C972.147 73.569 973.227 72.964 974.64 72.964ZM971.7 80.0041C971.7 81.6262 971.847 82.896 972.14 83.8134L976.58 74.9783C976.114 74.3534 975.467 74.041 974.64 74.041C973.72 74.041 973 74.5329 972.48 75.5168C971.96 76.4874 971.7 77.9832 971.7 80.0041ZM974.64 85.9673C975.574 85.9673 976.3 85.482 976.82 84.5114C977.34 83.5275 977.6 82.0251 977.6 80.0041C977.6 78.289 977.433 76.9594 977.1 76.0154L972.66 84.9302C973.14 85.6216 973.8 85.9673 974.64 85.9673Z" fill="url(#paint93_linear_175_198)"/>
</g>
<defs>
<filter id="filter0_f_175_198" x="-559.19" y="-727.19" width="2141.38" height="1500.38" filterUnits="userSpaceOnUse" color-interpolation-filters="sRGB">
<feFlood flood-opacity="0" result="BackgroundImageFix"/>
<feBlend mode="normal" in="SourceGraphic" in2="BackgroundImageFix" result="shape"/>
<feGaussianBlur stdDeviation="200.095" result="effect1_foregroundBlur_175_198"/>
</filter>
<linearGradient id="paint0_linear_175_198" x1="51.5" y1="259" x2="51.5" y2="570.381" gradientUnits="userSpaceOnUse">
<stop stop-color="#F7DD43"/>
<stop offset="1" stop-color="#F7DD43" stop-opacity="0"/>
</linearGradient>
<linearGradient id="paint1_linear_175_198" x1="51.5" y1="259" x2="51.5" y2="570.381" gradientUnits="userSpaceOnUse">
<stop stop-color="#F7DD43"/>
<stop offset="1" stop-color="#F7DD43" stop-opacity="0"/>
</linearGradient>
<linearGradient id="paint2_linear_175_198" x1="51.5" y1="259" x2="51.5" y2="570.381" gradientUnits="userSpaceOnUse">
<stop stop-color="#F7DD43"/>
<stop offset="1" stop-color="#F7DD43" stop-opacity="0"/>
</linearGradient>
<linearGradient id="paint3_linear_175_198" x1="51.5" y1="259" x2="51.5" y2="570.381" gradientUnits="userSpaceOnUse">
<stop stop-color="#F7DD43"/>
<stop offset="1" stop-color="#F7DD43" stop-opacity="0"/>
</linearGradient>
<linearGradient id="paint4_linear_175_198" x1="51.5" y1="259" x2="51.5" y2="570.381" gradientUnits="userSpaceOnUse">
<stop stop-color="#F7DD43"/>
<stop offset="1" stop-color="#F7DD43" stop-opacity="0"/>
</linearGradient>
<linearGradient id="paint5_linear_175_198" x1="51.5" y1="259" x2="51.5" y2="570.381" gradientUnits="userSpaceOnUse">
<stop stop-color="#F7DD43"/>
<stop offset="1" stop-color="#F7DD43" stop-opacity="0"/>
</linearGradient>
<linearGradient id="paint6_linear_175_198" x1="51.5" y1="259" x2="51.5" y2="570.381" gradientUnits="userSpaceOnUse">
<stop stop-color="#F7DD43"/>
<stop offset="1" stop-color="#F7DD43" stop-opacity="0"/>
</linearGradient>
<linearGradient id="paint7_linear_175_198" x1="51.5" y1="259" x2="51.5" y2="570.381" gradientUnits="userSpaceOnUse">
<stop stop-color="#F7DD43"/>
<stop offset="1" stop-color="#F7DD43" stop-opacity="0"/>
</linearGradient>
<linearGradient id="paint8_linear_175_198" x1="51.5" y1="259" x2="51.5" y2="570.381" gradientUnits="userSpaceOnUse">
<stop stop-color="#F7DD43"/>
<stop offset="1" stop-color="#F7DD43" stop-opacity="0"/>
</linearGradient>
<linearGradient id="paint9_linear_175_198" x1="51.5" y1="259" x2="51.5" y2="570.381" gradientUnits="userSpaceOnUse">
<stop stop-color="#F7DD43"/>
<stop offset="1" stop-color="#F7DD43" stop-opacity="0"/>
</linearGradient>
<linearGradient id="paint10_linear_175_198" x1="51.5" y1="259" x2="51.5" y2="570.381" gradientUnits="userSpaceOnUse">
<stop stop-color="#F7DD43"/>
<stop offset="1" stop-color="#F7DD43" stop-opacity="0"/>
</linearGradient>
<linearGradient id="paint11_linear_175_198" x1="51.5" y1="259" x2="51.5" y2="570.381" gradientUnits="userSpaceOnUse">
<stop stop-color="#F7DD43"/>
<stop offset="1" stop-color="#F7DD43" stop-opacity="0"/>
</linearGradient>
<linearGradient id="paint12_linear_175_198" x1="51.5" y1="259" x2="51.5" y2="570.381" gradientUnits="userSpaceOnUse">
<stop stop-color="#F7DD43"/>
<stop offset="1" stop-color="#F7DD43" stop-opacity="0"/>
</linearGradient>
<linearGradient id="paint13_linear_175_198" x1="51.5" y1="259" x2="51.5" y2="570.381" gradientUnits="userSpaceOnUse">
<stop stop-color="#F7DD43"/>
<stop offset="1" stop-color="#F7DD43" stop-opacity="0"/>
</linearGradient>
<linearGradient id="paint14_linear_175_198" x1="51.5" y1="259" x2="51.5" y2="570.381" gradientUnits="userSpaceOnUse">
<stop stop-color="#F7DD43"/>
<stop offset="1" stop-color="#F7DD43" stop-opacity="0"/>
</linearGradient>
<linearGradient id="paint15_linear_175_198" x1="51.5" y1="259" x2="51.5" y2="570.381" gradientUnits="userSpaceOnUse">
<stop stop-color="#F7DD43"/>
<stop offset="1" stop-color="#F7DD43" stop-opacity="0"/>
</linearGradient>
<linearGradient id="paint16_linear_175_198" x1="51.5" y1="259" x2="51.5" y2="570.381" gradientUnits="userSpaceOnUse">
<stop stop-color="#F7DD43"/>
<stop offset="1" stop-color="#F7DD43" stop-opacity="0"/>
</linearGradient>
<linearGradient id="paint17_linear_175_198" x1="51.5" y1="259" x2="51.5" y2="570.381" gradientUnits="userSpaceOnUse">
<stop stop-color="#F7DD43"/>
<stop offset="1" stop-color="#F7DD43" stop-opacity="0"/>
</linearGradient>
<linearGradient id="paint18_linear_175_198" x1="51.5" y1="259" x2="51.5" y2="570.381" gradientUnits="userSpaceOnUse">
<stop stop-color="#F7DD43"/>
<stop offset="1" stop-color="#F7DD43" stop-opacity="0"/>
</linearGradient>
<linearGradient id="paint19_linear_175_198" x1="51.5" y1="259" x2="51.5" y2="570.381" gradientUnits="userSpaceOnUse">
<stop stop-color="#F7DD43"/>
<stop offset="1" stop-color="#F7DD43" stop-opacity="0"/>
</linearGradient>
<linearGradient id="paint20_linear_175_198" x1="51.5" y1="259" x2="51.5" y2="570.381" gradientUnits="userSpaceOnUse">
<stop stop-color="#F7DD43"/>
<stop offset="1" stop-color="#F7DD43" stop-opacity="0"/>
</linearGradient>
<linearGradient id="paint21_linear_175_198" x1="51.5" y1="259" x2="51.5" y2="570.381" gradientUnits="userSpaceOnUse">
<stop stop-color="#F7DD43"/>
<stop offset="1" stop-color="#F7DD43" stop-opacity="0"/>
</linearGradient>
<linearGradient id="paint22_linear_175_198" x1="51.5" y1="259" x2="51.5" y2="570.381" gradientUnits="userSpaceOnUse">
<stop stop-color="#F7DD43"/>
<stop offset="1" stop-color="#F7DD43" stop-opacity="0"/>
</linearGradient>
<linearGradient id="paint23_linear_175_198" x1="51.5" y1="259" x2="51.5" y2="570.381" gradientUnits="userSpaceOnUse">
<stop stop-color="#F7DD43"/>
<stop offset="1" stop-color="#F7DD43" stop-opacity="0"/>
</linearGradient>
<linearGradient id="paint24_linear_175_198" x1="51.5" y1="259" x2="51.5" y2="570.381" gradientUnits="userSpaceOnUse">
<stop stop-color="#F7DD43"/>
<stop offset="1" stop-color="#F7DD43" stop-opacity="0"/>
</linearGradient>
<linearGradient id="paint25_linear_175_198" x1="51.5" y1="259" x2="51.5" y2="570.381" gradientUnits="userSpaceOnUse">
<stop stop-color="#F7DD43"/>
<stop offset="1" stop-color="#F7DD43" stop-opacity="0"/>
</linearGradient>
<linearGradient id="paint26_linear_175_198" x1="51.5" y1="259" x2="51.5" y2="570.381" gradientUnits="userSpaceOnUse">
<stop stop-color="#F7DD43"/>
<stop offset="1" stop-color="#F7DD43" stop-opacity="0"/>
</linearGradient>
<linearGradient id="paint27_linear_175_198" x1="51.5" y1="259" x2="51.5" y2="570.381" gradientUnits="userSpaceOnUse">
<stop stop-color="#F7DD43"/>
<stop offset="1" stop-color="#F7DD43" stop-opacity="0"/>
</linearGradient>
<linearGradient id="paint28_linear_175_198" x1="51.5" y1="259" x2="51.5" y2="570.381" gradientUnits="userSpaceOnUse">
<stop stop-color="#F7DD43"/>
<stop offset="1" stop-color="#F7DD43" stop-opacity="0"/>
</linearGradient>
<linearGradient id="paint29_linear_175_198" x1="51.5" y1="259" x2="51.5" y2="570.381" gradientUnits="userSpaceOnUse">
<stop stop-color="#F7DD43"/>
<stop offset="1" stop-color="#F7DD43" stop-opacity="0"/>
</linearGradient>
<linearGradient id="paint30_linear_175_198" x1="51.5" y1="259" x2="51.5" y2="570.381" gradientUnits="userSpaceOnUse">
<stop stop-color="#F7DD43"/>
<stop offset="1" stop-color="#F7DD43" stop-opacity="0"/>
</linearGradient>
<linearGradient id="paint31_linear_175_198" x1="51.5" y1="259" x2="51.5" y2="570.381" gradientUnits="userSpaceOnUse">
<stop stop-color="#F7DD43"/>
<stop offset="1" stop-color="#F7DD43" stop-opacity="0"/>
</linearGradient>
<linearGradient id="paint32_linear_175_198" x1="51.5" y1="259" x2="51.5" y2="570.381" gradientUnits="userSpaceOnUse">
<stop stop-color="#F7DD43"/>
<stop offset="1" stop-color="#F7DD43" stop-opacity="0"/>
</linearGradient>
<linearGradient id="paint33_linear_175_198" x1="51.5" y1="259" x2="51.5" y2="570.381" gradientUnits="userSpaceOnUse">
<stop stop-color="#F7DD43"/>
<stop offset="1" stop-color="#F7DD43" stop-opacity="0"/>
</linearGradient>
<linearGradient id="paint34_linear_175_198" x1="51.5" y1="259" x2="51.5" y2="570.381" gradientUnits="userSpaceOnUse">
<stop stop-color="#F7DD43"/>
<stop offset="1" stop-color="#F7DD43" stop-opacity="0"/>
</linearGradient>
<linearGradient id="paint35_linear_175_198" x1="51.5" y1="259" x2="51.5" y2="570.381" gradientUnits="userSpaceOnUse">
<stop stop-color="#F7DD43"/>
<stop offset="1" stop-color="#F7DD43" stop-opacity="0"/>
</linearGradient>
<linearGradient id="paint36_linear_175_198" x1="51.5" y1="259" x2="51.5" y2="570.381" gradientUnits="userSpaceOnUse">
<stop stop-color="#F7DD43"/>
<stop offset="1" stop-color="#F7DD43" stop-opacity="0"/>
</linearGradient>
<linearGradient id="paint37_linear_175_198" x1="51.5" y1="259" x2="51.5" y2="570.381" gradientUnits="userSpaceOnUse">
<stop stop-color="#F7DD43"/>
<stop offset="1" stop-color="#F7DD43" stop-opacity="0"/>
</linearGradient>
<linearGradient id="paint38_linear_175_198" x1="51.5" y1="259" x2="51.5" y2="570.381" gradientUnits="userSpaceOnUse">
<stop stop-color="#F7DD43"/>
<stop offset="1" stop-color="#F7DD43" stop-opacity="0"/>
</linearGradient>
<linearGradient id="paint39_linear_175_198" x1="51.5" y1="259" x2="51.5" y2="570.381" gradientUnits="userSpaceOnUse">
<stop stop-color="#F7DD43"/>
<stop offset="1" stop-color="#F7DD43" stop-opacity="0"/>
</linearGradient>
<linearGradient id="paint40_linear_175_198" x1="51.5" y1="259" x2="51.5" y2="570.381" gradientUnits="userSpaceOnUse">
<stop stop-color="#F7DD43"/>
<stop offset="1" stop-color="#F7DD43" stop-opacity="0"/>
</linearGradient>
<linearGradient id="paint41_linear_175_198" x1="51.5" y1="259" x2="51.5" y2="570.381" gradientUnits="userSpaceOnUse">
<stop stop-color="#F7DD43"/>
<stop offset="1" stop-color="#F7DD43" stop-opacity="0"/>
</linearGradient>
<linearGradient id="paint42_linear_175_198" x1="51.5" y1="259" x2="51.5" y2="570.381" gradientUnits="userSpaceOnUse">
<stop stop-color="#F7DD43"/>
<stop offset="1" stop-color="#F7DD43" stop-opacity="0"/>
</linearGradient>
<linearGradient id="paint43_linear_175_198" x1="51.5" y1="259" x2="51.5" y2="570.381" gradientUnits="userSpaceOnUse">
<stop stop-color="#F7DD43"/>
<stop offset="1" stop-color="#F7DD43" stop-opacity="0"/>
</linearGradient>
<linearGradient id="paint44_linear_175_198" x1="51.5" y1="259" x2="51.5" y2="570.381" gradientUnits="userSpaceOnUse">
<stop stop-color="#F7DD43"/>
<stop offset="1" stop-color="#F7DD43" stop-opacity="0"/>
</linearGradient>
<linearGradient id="paint45_linear_175_198" x1="51.5" y1="259" x2="51.5" y2="570.381" gradientUnits="userSpaceOnUse">
<stop stop-color="#F7DD43"/>
<stop offset="1" stop-color="#F7DD43" stop-opacity="0"/>
</linearGradient>
<linearGradient id="paint46_linear_175_198" x1="51.5" y1="259" x2="51.5" y2="570.381" gradientUnits="userSpaceOnUse">
<stop stop-color="#F7DD43"/>
<stop offset="1" stop-color="#F7DD43" stop-opacity="0"/>
</linearGradient>
<linearGradient id="paint47_linear_175_198" x1="937.5" y1="-41" x2="937.5" y2="257.818" gradientUnits="userSpaceOnUse">
<stop stop-color="#F7DD43"/>
<stop offset="1" stop-color="#F7DD43" stop-opacity="0"/>
</linearGradient>
<linearGradient id="paint48_linear_175_198" x1="937.5" y1="-41" x2="937.5" y2="257.818" gradientUnits="userSpaceOnUse">
<stop stop-color="#F7DD43"/>
<stop offset="1" stop-color="#F7DD43" stop-opacity="0"/>
</linearGradient>
<linearGradient id="paint49_linear_175_198" x1="937.5" y1="-41" x2="937.5" y2="257.818" gradientUnits="userSpaceOnUse">
<stop stop-color="#F7DD43"/>
<stop offset="1" stop-color="#F7DD43" stop-opacity="0"/>
</linearGradient>
<linearGradient id="paint50_linear_175_198" x1="937.5" y1="-41" x2="937.5" y2="257.818" gradientUnits="userSpaceOnUse">
<stop stop-color="#F7DD43"/>
<stop offset="1" stop-color="#F7DD43" stop-opacity="0"/>
</linearGradient>
<linearGradient id="paint51_linear_175_198" x1="937.5" y1="-41" x2="937.5" y2="257.818" gradientUnits="userSpaceOnUse">
<stop stop-color="#F7DD43"/>
<stop offset="1" stop-color="#F7DD43" stop-opacity="0"/>
</linearGradient>
<linearGradient id="paint52_linear_175_198" x1="937.5" y1="-41" x2="937.5" y2="257.818" gradientUnits="userSpaceOnUse">
<stop stop-color="#F7DD43"/>
<stop offset="1" stop-color="#F7DD43" stop-opacity="0"/>
</linearGradient>
<linearGradient id="paint53_linear_175_198" x1="937.5" y1="-41" x2="937.5" y2="257.818" gradientUnits="userSpaceOnUse">
<stop stop-color="#F7DD43"/>
<stop offset="1" stop-color="#F7DD43" stop-opacity="0"/>
</linearGradient>
<linearGradient id="paint54_linear_175_198" x1="937.5" y1="-41" x2="937.5" y2="257.818" gradientUnits="userSpaceOnUse">
<stop stop-color="#F7DD43"/>
<stop offset="1" stop-color="#F7DD43" stop-opacity="0"/>
</linearGradient>
<linearGradient id="paint55_linear_175_198" x1="937.5" y1="-41" x2="937.5" y2="257.818" gradientUnits="userSpaceOnUse">
<stop stop-color="#F7DD43"/>
<stop offset="1" stop-color="#F7DD43" stop-opacity="0"/>
</linearGradient>
<linearGradient id="paint56_linear_175_198" x1="937.5" y1="-41" x2="937.5" y2="257.818" gradientUnits="userSpaceOnUse">
<stop stop-color="#F7DD43"/>
<stop offset="1" stop-color="#F7DD43" stop-opacity="0"/>
</linearGradient>
<linearGradient id="paint57_linear_175_198" x1="937.5" y1="-41" x2="937.5" y2="257.818" gradientUnits="userSpaceOnUse">
<stop stop-color="#F7DD43"/>
<stop offset="1" stop-color="#F7DD43" stop-opacity="0"/>
</linearGradient>
<linearGradient id="paint58_linear_175_198" x1="937.5" y1="-41" x2="937.5" y2="257.818" gradientUnits="userSpaceOnUse">
<stop stop-color="#F7DD43"/>
<stop offset="1" stop-color="#F7DD43" stop-opacity="0"/>
</linearGradient>
<linearGradient id="paint59_linear_175_198" x1="937.5" y1="-41" x2="937.5" y2="257.818" gradientUnits="userSpaceOnUse">
<stop stop-color="#F7DD43"/>
<stop offset="1" stop-color="#F7DD43" stop-opacity="0"/>
</linearGradient>
<linearGradient id="paint60_linear_175_198" x1="937.5" y1="-41" x2="937.5" y2="257.818" gradientUnits="userSpaceOnUse">
<stop stop-color="#F7DD43"/>
<stop offset="1" stop-color="#F7DD43" stop-opacity="0"/>
</linearGradient>
<linearGradient id="paint61_linear_175_198" x1="937.5" y1="-41" x2="937.5" y2="257.818" gradientUnits="userSpaceOnUse">
<stop stop-color="#F7DD43"/>
<stop offset="1" stop-color="#F7DD43" stop-opacity="0"/>
</linearGradient>
<linearGradient id="paint62_linear_175_198" x1="937.5" y1="-41" x2="937.5" y2="257.818" gradientUnits="userSpaceOnUse">
<stop stop-color="#F7DD43"/>
<stop offset="1" stop-color="#F7DD43" stop-opacity="0"/>
</linearGradient>
<linearGradient id="paint63_linear_175_198" x1="937.5" y1="-41" x2="937.5" y2="257.818" gradientUnits="userSpaceOnUse">
<stop stop-color="#F7DD43"/>
<stop offset="1" stop-color="#F7DD43" stop-opacity="0"/>
</linearGradient>
<linearGradient id="paint64_linear_175_198" x1="937.5" y1="-41" x2="937.5" y2="257.818" gradientUnits="userSpaceOnUse">
<stop stop-color="#F7DD43"/>
<stop offset="1" stop-color="#F7DD43" stop-opacity="0"/>
</linearGradient>
<linearGradient id="paint65_linear_175_198" x1="937.5" y1="-41" x2="937.5" y2="257.818" gradientUnits="userSpaceOnUse">
<stop stop-color="#F7DD43"/>
<stop offset="1" stop-color="#F7DD43" stop-opacity="0"/>
</linearGradient>
<linearGradient id="paint66_linear_175_198" x1="937.5" y1="-41" x2="937.5" y2="257.818" gradientUnits="userSpaceOnUse">
<stop stop-color="#F7DD43"/>
<stop offset="1" stop-color="#F7DD43" stop-opacity="0"/>
</linearGradient>
<linearGradient id="paint67_linear_175_198" x1="937.5" y1="-41" x2="937.5" y2="257.818" gradientUnits="userSpaceOnUse">
<stop stop-color="#F7DD43"/>
<stop offset="1" stop-color="#F7DD43" stop-opacity="0"/>
</linearGradient>
<linearGradient id="paint68_linear_175_198" x1="937.5" y1="-41" x2="937.5" y2="257.818" gradientUnits="userSpaceOnUse">
<stop stop-color="#F7DD43"/>
<stop offset="1" stop-color="#F7DD43" stop-opacity="0"/>
</linearGradient>
<linearGradient id="paint69_linear_175_198" x1="937.5" y1="-41" x2="937.5" y2="257.818" gradientUnits="userSpaceOnUse">
<stop stop-color="#F7DD43"/>
<stop offset="1" stop-color="#F7DD43" stop-opacity="0"/>
</linearGradient>
<linearGradient id="paint70_linear_175_198" x1="937.5" y1="-41" x2="937.5" y2="257.818" gradientUnits="userSpaceOnUse">
<stop stop-color="#F7DD43"/>
<stop offset="1" stop-color="#F7DD43" stop-opacity="0"/>
</linearGradient>
<linearGradient id="paint71_linear_175_198" x1="937.5" y1="-41" x2="937.5" y2="257.818" gradientUnits="userSpaceOnUse">
<stop stop-color="#F7DD43"/>
<stop offset="1" stop-color="#F7DD43" stop-opacity="0"/>
</linearGradient>
<linearGradient id="paint72_linear_175_198" x1="937.5" y1="-41" x2="937.5" y2="257.818" gradientUnits="userSpaceOnUse">
<stop stop-color="#F7DD43"/>
<stop offset="1" stop-color="#F7DD43" stop-opacity="0"/>
</linearGradient>
<linearGradient id="paint73_linear_175_198" x1="937.5" y1="-41" x2="937.5" y2="257.818" gradientUnits="userSpaceOnUse">
<stop stop-color="#F7DD43"/>
<stop offset="1" stop-color="#F7DD43" stop-opacity="0"/>
</linearGradient>
<linearGradient id="paint74_linear_175_198" x1="937.5" y1="-41" x2="937.5" y2="257.818" gradientUnits="userSpaceOnUse">
<stop stop-color="#F7DD43"/>
<stop offset="1" stop-color="#F7DD43" stop-opacity="0"/>
</linearGradient>
<linearGradient id="paint75_linear_175_198" x1="937.5" y1="-41" x2="937.5" y2="257.818" gradientUnits="userSpaceOnUse">
<stop stop-color="#F7DD43"/>
<stop offset="1" stop-color="#F7DD43" stop-opacity="0"/>
</linearGradient>
<linearGradient id="paint76_linear_175_198" x1="937.5" y1="-41" x2="937.5" y2="257.818" gradientUnits="userSpaceOnUse">
<stop stop-color="#F7DD43"/>
<stop offset="1" stop-color="#F7DD43" stop-opacity="0"/>
</linearGradient>
<linearGradient id="paint77_linear_175_198" x1="937.5" y1="-41" x2="937.5" y2="257.818" gradientUnits="userSpaceOnUse">
<stop stop-color="#F7DD43"/>
<stop offset="1" stop-color="#F7DD43" stop-opacity="0"/>
</linearGradient>
<linearGradient id="paint78_linear_175_198" x1="937.5" y1="-41" x2="937.5" y2="257.818" gradientUnits="userSpaceOnUse">
<stop stop-color="#F7DD43"/>
<stop offset="1" stop-color="#F7DD43" stop-opacity="0"/>
</linearGradient>
<linearGradient id="paint79_linear_175_198" x1="937.5" y1="-41" x2="937.5" y2="257.818" gradientUnits="userSpaceOnUse">
<stop stop-color="#F7DD43"/>
<stop offset="1" stop-color="#F7DD43" stop-opacity="0"/>
</linearGradient>
<linearGradient id="paint80_linear_175_198" x1="937.5" y1="-41" x2="937.5" y2="257.818" gradientUnits="userSpaceOnUse">
<stop stop-color="#F7DD43"/>
<stop offset="1" stop-color="#F7DD43" stop-opacity="0"/>
</linearGradient>
<linearGradient id="paint81_linear_175_198" x1="937.5" y1="-41" x2="937.5" y2="257.818" gradientUnits="userSpaceOnUse">
<stop stop-color="#F7DD43"/>
<stop offset="1" stop-color="#F7DD43" stop-opacity="0"/>
</linearGradient>
<linearGradient id="paint82_linear_175_198" x1="937.5" y1="-41" x2="937.5" y2="257.818" gradientUnits="userSpaceOnUse">
<stop stop-color="#F7DD43"/>
<stop offset="1" stop-color="#F7DD43" stop-opacity="0"/>
</linearGradient>
<linearGradient id="paint83_linear_175_198" x1="937.5" y1="-41" x2="937.5" y2="257.818" gradientUnits="userSpaceOnUse">
<stop stop-color="#F7DD43"/>
<stop offset="1" stop-color="#F7DD43" stop-opacity="0"/>
</linearGradient>
<linearGradient id="paint84_linear_175_198" x1="937.5" y1="-41" x2="937.5" y2="257.818" gradientUnits="userSpaceOnUse">
<stop stop-color="#F7DD43"/>
<stop offset="1" stop-color="#F7DD43" stop-opacity="0"/>
</linearGradient>
<linearGradient id="paint85_linear_175_198" x1="937.5" y1="-41" x2="937.5" y2="257.818" gradientUnits="userSpaceOnUse">
<stop stop-color="#F7DD43"/>
<stop offset="1" stop-color="#F7DD43" stop-opacity="0"/>
</linearGradient>
<linearGradient id="paint86_linear_175_198" x1="937.5" y1="-41" x2="937.5" y2="257.818" gradientUnits="userSpaceOnUse">
<stop stop-color="#F7DD43"/>
<stop offset="1" stop-color="#F7DD43" stop-opacity="0"/>
</linearGradient>
<linearGradient id="paint87_linear_175_198" x1="937.5" y1="-41" x2="937.5" y2="257.818" gradientUnits="userSpaceOnUse">
<stop stop-color="#F7DD43"/>
<stop offset="1" stop-color="#F7DD43" stop-opacity="0"/>
</linearGradient>
<linearGradient id="paint88_linear_175_198" x1="937.5" y1="-41" x2="937.5" y2="257.818" gradientUnits="userSpaceOnUse">
<stop stop-color="#F7DD43"/>
<stop offset="1" stop-color="#F7DD43" stop-opacity="0"/>
</linearGradient>
<linearGradient id="paint89_linear_175_198" x1="937.5" y1="-41" x2="937.5" y2="257.818" gradientUnits="userSpaceOnUse">
<stop stop-color="#F7DD43"/>
<stop offset="1" stop-color="#F7DD43" stop-opacity="0"/>
</linearGradient>
<linearGradient id="paint90_linear_175_198" x1="937.5" y1="-41" x2="937.5" y2="257.818" gradientUnits="userSpaceOnUse">
<stop stop-color="#F7DD43"/>
<stop offset="1" stop-color="#F7DD43" stop-opacity="0"/>
</linearGradient>
<linearGradient id="paint91_linear_175_198" x1="937.5" y1="-41" x2="937.5" y2="257.818" gradientUnits="userSpaceOnUse">
<stop stop-color="#F7DD43"/>
<stop offset="1" stop-color="#F7DD43" stop-opacity="0"/>
</linearGradient>
<linearGradient id="paint92_linear_175_198" x1="937.5" y1="-41" x2="937.5" y2="257.818" gradientUnits="userSpaceOnUse">
<stop stop-color="#F7DD43"/>
<stop offset="1" stop-color="#F7DD43" stop-opacity="0"/>
</linearGradient>
<linearGradient id="paint93_linear_175_198" x1="937.5" y1="-41" x2="937.5" y2="257.818" gradientUnits="userSpaceOnUse">
<stop stop-color="#F7DD43"/>
<stop offset="1" stop-color="#F7DD43" stop-opacity="0"/>
</linearGradient>
</defs>
</svg>
